<mxfile host="app.diagrams.net" agent="Mozilla/5.0 (Windows NT 10.0; Win64; x64) AppleWebKit/537.36 (KHTML, like Gecko) Chrome/128.0.0.0 Safari/537.36" version="24.7.10">
  <diagram name="Page-1" id="rKCbfZ0aH_Li67fV-YOk">
    <mxGraphModel dx="1420" dy="672" grid="1" gridSize="10" guides="1" tooltips="1" connect="1" arrows="1" fold="1" page="1" pageScale="1" pageWidth="1400" pageHeight="850" math="0" shadow="0">
      <root>
        <mxCell id="0" />
        <mxCell id="1" parent="0" />
        <mxCell id="nKfXDBvw8mYXWEhuiEYp-1" value="VPC-A" style="points=[[0,0],[0.25,0],[0.5,0],[0.75,0],[1,0],[1,0.25],[1,0.5],[1,0.75],[1,1],[0.75,1],[0.5,1],[0.25,1],[0,1],[0,0.75],[0,0.5],[0,0.25]];outlineConnect=0;html=1;whiteSpace=wrap;fontSize=12;fontStyle=0;container=1;pointerEvents=0;collapsible=0;recursiveResize=0;shape=mxgraph.aws4.group;grIcon=mxgraph.aws4.group_vpc2;strokeColor=#6c8ebf;fillColor=#dae8fc;verticalAlign=top;align=left;spacingLeft=30;dashed=0;" parent="1" vertex="1">
          <mxGeometry x="80" y="160" width="410" height="220" as="geometry" />
        </mxCell>
        <mxCell id="nKfXDBvw8mYXWEhuiEYp-12" value="Private subnet" style="points=[[0,0],[0.25,0],[0.5,0],[0.75,0],[1,0],[1,0.25],[1,0.5],[1,0.75],[1,1],[0.75,1],[0.5,1],[0.25,1],[0,1],[0,0.75],[0,0.5],[0,0.25]];outlineConnect=0;gradientColor=none;html=1;whiteSpace=wrap;fontSize=12;fontStyle=0;container=1;pointerEvents=0;collapsible=0;recursiveResize=0;shape=mxgraph.aws4.group;grIcon=mxgraph.aws4.group_security_group;grStroke=0;strokeColor=#00A4A6;fillColor=#E6F6F7;verticalAlign=top;align=left;spacingLeft=30;fontColor=#147EBA;dashed=0;movable=1;resizable=1;rotatable=1;deletable=1;editable=1;locked=0;connectable=1;" parent="nKfXDBvw8mYXWEhuiEYp-1" vertex="1">
          <mxGeometry x="10" y="40" width="270" height="160" as="geometry" />
        </mxCell>
        <mxCell id="nKfXDBvw8mYXWEhuiEYp-20" value="&lt;b style=&quot;font-size: 11px;&quot;&gt;NACL&lt;/b&gt;" style="sketch=0;outlineConnect=0;fontColor=#232F3E;gradientColor=none;strokeColor=#232F3E;fillColor=#ffffff;dashed=0;verticalLabelPosition=bottom;verticalAlign=top;align=center;html=1;fontSize=12;fontStyle=0;aspect=fixed;shape=mxgraph.aws4.resourceIcon;resIcon=mxgraph.aws4.network_access_control_list;" parent="nKfXDBvw8mYXWEhuiEYp-12" vertex="1">
          <mxGeometry x="200" y="50" width="60" height="60" as="geometry" />
        </mxCell>
        <mxCell id="nKfXDBvw8mYXWEhuiEYp-37" value="" style="group" parent="nKfXDBvw8mYXWEhuiEYp-12" vertex="1" connectable="0">
          <mxGeometry x="30" y="25" width="140" height="114.5" as="geometry" />
        </mxCell>
        <mxCell id="nKfXDBvw8mYXWEhuiEYp-38" value="&lt;b&gt;Sec Grp&lt;/b&gt;" style="fillColor=none;strokeColor=#DD3522;verticalAlign=top;fontStyle=0;fontColor=#DD3522;whiteSpace=wrap;html=1;" parent="nKfXDBvw8mYXWEhuiEYp-37" vertex="1">
          <mxGeometry width="140" height="114.5" as="geometry" />
        </mxCell>
        <mxCell id="nKfXDBvw8mYXWEhuiEYp-39" value="" style="sketch=0;points=[[0,0,0],[0.25,0,0],[0.5,0,0],[0.75,0,0],[1,0,0],[0,1,0],[0.25,1,0],[0.5,1,0],[0.75,1,0],[1,1,0],[0,0.25,0],[0,0.5,0],[0,0.75,0],[1,0.25,0],[1,0.5,0],[1,0.75,0]];outlineConnect=0;fontColor=#232F3E;fillColor=#ED7100;strokeColor=#ffffff;dashed=0;verticalLabelPosition=bottom;verticalAlign=top;align=center;html=1;fontSize=12;fontStyle=0;aspect=fixed;shape=mxgraph.aws4.resourceIcon;resIcon=mxgraph.aws4.ec2;" parent="nKfXDBvw8mYXWEhuiEYp-37" vertex="1">
          <mxGeometry x="30" y="30" width="79" height="79" as="geometry" />
        </mxCell>
        <mxCell id="nKfXDBvw8mYXWEhuiEYp-21" value="&lt;b&gt;&lt;font style=&quot;font-size: 11px;&quot;&gt;Route table&lt;/font&gt;&lt;/b&gt;" style="sketch=0;outlineConnect=0;fontColor=#232F3E;gradientColor=none;strokeColor=#232F3E;fillColor=#ffffff;dashed=0;verticalLabelPosition=bottom;verticalAlign=top;align=center;html=1;fontSize=12;fontStyle=0;aspect=fixed;shape=mxgraph.aws4.resourceIcon;resIcon=mxgraph.aws4.route_table;" parent="nKfXDBvw8mYXWEhuiEYp-1" vertex="1">
          <mxGeometry x="320" y="90" width="60" height="60" as="geometry" />
        </mxCell>
        <mxCell id="nKfXDBvw8mYXWEhuiEYp-34" value="" style="endArrow=none;startArrow=classic;html=1;rounded=0;strokeWidth=2;strokeColor=#0000FF;endFill=0;" parent="nKfXDBvw8mYXWEhuiEYp-1" source="nKfXDBvw8mYXWEhuiEYp-20" target="nKfXDBvw8mYXWEhuiEYp-21" edge="1">
          <mxGeometry width="50" height="50" relative="1" as="geometry">
            <mxPoint x="960" y="114" as="sourcePoint" />
            <mxPoint x="870" y="114" as="targetPoint" />
          </mxGeometry>
        </mxCell>
        <mxCell id="nKfXDBvw8mYXWEhuiEYp-35" value="" style="endArrow=none;startArrow=classic;html=1;rounded=0;strokeWidth=2;strokeColor=#0000FF;endFill=0;" parent="nKfXDBvw8mYXWEhuiEYp-1" target="nKfXDBvw8mYXWEhuiEYp-20" edge="1">
          <mxGeometry width="50" height="50" relative="1" as="geometry">
            <mxPoint x="180" y="120" as="sourcePoint" />
            <mxPoint x="240" y="120" as="targetPoint" />
          </mxGeometry>
        </mxCell>
        <mxCell id="nKfXDBvw8mYXWEhuiEYp-22" value="VPC-B" style="points=[[0,0],[0.25,0],[0.5,0],[0.75,0],[1,0],[1,0.25],[1,0.5],[1,0.75],[1,1],[0.75,1],[0.5,1],[0.25,1],[0,1],[0,0.75],[0,0.5],[0,0.25]];outlineConnect=0;html=1;whiteSpace=wrap;fontSize=12;fontStyle=0;container=1;pointerEvents=0;collapsible=0;recursiveResize=0;shape=mxgraph.aws4.group;grIcon=mxgraph.aws4.group_vpc2;strokeColor=#6c8ebf;fillColor=#dae8fc;verticalAlign=top;align=left;spacingLeft=30;dashed=0;" parent="1" vertex="1">
          <mxGeometry x="630" y="160" width="450" height="220" as="geometry" />
        </mxCell>
        <mxCell id="nKfXDBvw8mYXWEhuiEYp-27" value="&lt;b&gt;&lt;font style=&quot;font-size: 11px;&quot;&gt;Route table&lt;/font&gt;&lt;/b&gt;" style="sketch=0;outlineConnect=0;fontColor=#232F3E;gradientColor=none;strokeColor=#232F3E;fillColor=#ffffff;dashed=0;verticalLabelPosition=bottom;verticalAlign=top;align=center;html=1;fontSize=12;fontStyle=0;aspect=fixed;shape=mxgraph.aws4.resourceIcon;resIcon=mxgraph.aws4.route_table;" parent="nKfXDBvw8mYXWEhuiEYp-22" vertex="1">
          <mxGeometry x="20" y="84" width="60" height="60" as="geometry" />
        </mxCell>
        <mxCell id="nKfXDBvw8mYXWEhuiEYp-23" value="Private subnet" style="points=[[0,0],[0.25,0],[0.5,0],[0.75,0],[1,0],[1,0.25],[1,0.5],[1,0.75],[1,1],[0.75,1],[0.5,1],[0.25,1],[0,1],[0,0.75],[0,0.5],[0,0.25]];outlineConnect=0;gradientColor=none;html=1;whiteSpace=wrap;fontSize=12;fontStyle=0;container=1;pointerEvents=0;collapsible=0;recursiveResize=0;shape=mxgraph.aws4.group;grIcon=mxgraph.aws4.group_security_group;grStroke=0;strokeColor=#00A4A6;fillColor=#E6F6F7;verticalAlign=top;align=left;spacingLeft=30;fontColor=#147EBA;dashed=0;movable=1;resizable=1;rotatable=1;deletable=1;editable=1;locked=0;connectable=1;" parent="nKfXDBvw8mYXWEhuiEYp-22" vertex="1">
          <mxGeometry x="130" y="30" width="310" height="160" as="geometry" />
        </mxCell>
        <mxCell id="nKfXDBvw8mYXWEhuiEYp-26" value="&lt;b style=&quot;font-size: 11px;&quot;&gt;NACL&lt;/b&gt;" style="sketch=0;outlineConnect=0;fontColor=#232F3E;gradientColor=none;strokeColor=#232F3E;fillColor=#ffffff;dashed=0;verticalLabelPosition=bottom;verticalAlign=top;align=center;html=1;fontSize=12;fontStyle=0;aspect=fixed;shape=mxgraph.aws4.resourceIcon;resIcon=mxgraph.aws4.network_access_control_list;" parent="nKfXDBvw8mYXWEhuiEYp-23" vertex="1">
          <mxGeometry x="20" y="54" width="60" height="60" as="geometry" />
        </mxCell>
        <mxCell id="nKfXDBvw8mYXWEhuiEYp-32" value="" style="group" parent="nKfXDBvw8mYXWEhuiEYp-23" vertex="1" connectable="0">
          <mxGeometry x="120" y="22.75" width="140" height="114.5" as="geometry" />
        </mxCell>
        <mxCell id="nKfXDBvw8mYXWEhuiEYp-25" value="&lt;b&gt;Sec Grp&lt;/b&gt;" style="fillColor=none;strokeColor=#DD3522;verticalAlign=top;fontStyle=0;fontColor=#DD3522;whiteSpace=wrap;html=1;" parent="nKfXDBvw8mYXWEhuiEYp-32" vertex="1">
          <mxGeometry width="140" height="114.5" as="geometry" />
        </mxCell>
        <mxCell id="nKfXDBvw8mYXWEhuiEYp-24" value="" style="sketch=0;points=[[0,0,0],[0.25,0,0],[0.5,0,0],[0.75,0,0],[1,0,0],[0,1,0],[0.25,1,0],[0.5,1,0],[0.75,1,0],[1,1,0],[0,0.25,0],[0,0.5,0],[0,0.75,0],[1,0.25,0],[1,0.5,0],[1,0.75,0]];outlineConnect=0;fontColor=#232F3E;fillColor=#ED7100;strokeColor=#ffffff;dashed=0;verticalLabelPosition=bottom;verticalAlign=top;align=center;html=1;fontSize=12;fontStyle=0;aspect=fixed;shape=mxgraph.aws4.resourceIcon;resIcon=mxgraph.aws4.ec2;" parent="nKfXDBvw8mYXWEhuiEYp-32" vertex="1">
          <mxGeometry x="30" y="30" width="79" height="79" as="geometry" />
        </mxCell>
        <mxCell id="nKfXDBvw8mYXWEhuiEYp-36" value="" style="endArrow=none;startArrow=classic;html=1;rounded=0;strokeWidth=2;strokeColor=#0000FF;endFill=0;" parent="nKfXDBvw8mYXWEhuiEYp-23" source="nKfXDBvw8mYXWEhuiEYp-25" target="nKfXDBvw8mYXWEhuiEYp-26" edge="1">
          <mxGeometry width="50" height="50" relative="1" as="geometry">
            <mxPoint x="31" y="150" as="sourcePoint" />
            <mxPoint x="-39" y="150" as="targetPoint" />
          </mxGeometry>
        </mxCell>
        <mxCell id="nKfXDBvw8mYXWEhuiEYp-33" value="" style="endArrow=none;startArrow=classic;html=1;rounded=0;strokeWidth=2;strokeColor=#0000FF;endFill=0;" parent="nKfXDBvw8mYXWEhuiEYp-22" source="nKfXDBvw8mYXWEhuiEYp-26" target="nKfXDBvw8mYXWEhuiEYp-27" edge="1">
          <mxGeometry width="50" height="50" relative="1" as="geometry">
            <mxPoint x="53" y="164" as="sourcePoint" />
            <mxPoint x="-111" y="165" as="targetPoint" />
          </mxGeometry>
        </mxCell>
        <mxCell id="nKfXDBvw8mYXWEhuiEYp-28" value="&lt;b&gt;VPC Peering&lt;/b&gt;" style="outlineConnect=0;dashed=0;verticalLabelPosition=bottom;verticalAlign=top;align=center;html=1;shape=mxgraph.aws3.vpc_peering;fillColor=#F58536;gradientColor=none;" parent="1" vertex="1">
          <mxGeometry x="530" y="244" width="69" height="72" as="geometry" />
        </mxCell>
        <mxCell id="nKfXDBvw8mYXWEhuiEYp-30" value="" style="endArrow=none;startArrow=classic;html=1;rounded=0;strokeWidth=2;strokeColor=#0000FF;entryX=0;entryY=0.5;entryDx=0;entryDy=0;entryPerimeter=0;endFill=0;" parent="1" source="nKfXDBvw8mYXWEhuiEYp-21" target="nKfXDBvw8mYXWEhuiEYp-28" edge="1">
          <mxGeometry width="50" height="50" relative="1" as="geometry">
            <mxPoint x="670" y="480" as="sourcePoint" />
            <mxPoint x="720" y="430" as="targetPoint" />
          </mxGeometry>
        </mxCell>
        <mxCell id="nKfXDBvw8mYXWEhuiEYp-31" value="" style="endArrow=none;startArrow=classic;html=1;rounded=0;strokeWidth=2;strokeColor=#0000FF;entryX=1;entryY=0.5;entryDx=0;entryDy=0;entryPerimeter=0;endFill=0;exitX=0.05;exitY=0.583;exitDx=0;exitDy=0;exitPerimeter=0;" parent="1" source="nKfXDBvw8mYXWEhuiEYp-27" target="nKfXDBvw8mYXWEhuiEYp-28" edge="1">
          <mxGeometry width="50" height="50" relative="1" as="geometry">
            <mxPoint x="500" y="410" as="sourcePoint" />
            <mxPoint x="660" y="406" as="targetPoint" />
          </mxGeometry>
        </mxCell>
      </root>
    </mxGraphModel>
  </diagram>
</mxfile>
